# xmcd
#
# Track frame offsets:
#	150
#	14622
#	34452
#	54500
#	71327
#	89360
#	113987
#	129790
#	146017
#	172825
#	188712
#	214422
#
# Disc length: 3024
#
# Revision: 2
# Processed by: cddbd v1.5.1PL0 Copyright (c) Steve Scherf et al.
# Submitted via: DiscPlay 4.0.2
# Normalized: r1:DSETVAR1,TDELIM( - )
#
DISCID=a90bce0c
DTITLE=Various Artist - The Blues For You
DYEAR=1900
DGENRE=
TTITLE0=Delbert MCClinton - That's The Way I Feel
TTITLE1=The Vaughan Brothers - Good Texan
TTITLE2=Chicken Shack - The Way It Is
TTITLE3=Burning Tree - Fly On
TTITLE4=Lonnie Mack - Riding The Blinds
TTITLE5=Jack Bruce - Blues You Can't Lose
TTITLE6=Mason Ruffner - Red Hot Lover
TTITLE7=John Mayall - All Your Love
TTITLE8=Blood, Sweat and Tears - I Love You More Than You'll Ever Know
TTITLE9=Tommy Conwell and The Young Rumblers - Let Me Love You Too
TTITLE10=The Dickey Betts Band - Rock Bottom
TTITLE11=Southside Johnny and The Ashbury Jukes - I Choose To Sing The Blues
EXTD=
EXTT0=
EXTT1=
EXTT2=
EXTT3=
EXTT4=
EXTT5=
EXTT6=
EXTT7=
EXTT8=
EXTT9=
EXTT10=
EXTT11=
PLAYORDER=
